<mxfile host="app.diagrams.net" modified="2024-02-06T09:51:00.223Z" agent="Mozilla/5.0 (Macintosh; Intel Mac OS X 10_15_7) AppleWebKit/537.36 (KHTML, like Gecko) Chrome/120.0.0.0 Safari/537.36" etag="m_EFTuYm4FgFFBBpMlsd" version="23.1.1" type="github">
  <diagram name="第 1 页" id="QAJrKnAF4I0Qu2eBaVXO">
    <mxGraphModel dx="1272" dy="808" grid="1" gridSize="10" guides="1" tooltips="1" connect="1" arrows="1" fold="1" page="1" pageScale="1" pageWidth="827" pageHeight="1169" math="0" shadow="0">
      <root>
        <mxCell id="0" />
        <mxCell id="1" parent="0" />
        <mxCell id="3Fw8Cve3jLayRroJCqeQ-2" value="" style="rounded=0;whiteSpace=wrap;html=1;" vertex="1" parent="1">
          <mxGeometry x="360" y="650" width="660" height="145" as="geometry" />
        </mxCell>
        <mxCell id="3Fw8Cve3jLayRroJCqeQ-3" value="" style="rounded=0;whiteSpace=wrap;html=1;" vertex="1" parent="1">
          <mxGeometry x="360" y="210" width="660" height="160" as="geometry" />
        </mxCell>
        <mxCell id="3Fw8Cve3jLayRroJCqeQ-27" style="edgeStyle=orthogonalEdgeStyle;rounded=0;orthogonalLoop=1;jettySize=auto;html=1;entryX=0.5;entryY=1;entryDx=0;entryDy=0;" edge="1" parent="1" source="3Fw8Cve3jLayRroJCqeQ-4" target="3Fw8Cve3jLayRroJCqeQ-10">
          <mxGeometry relative="1" as="geometry">
            <Array as="points">
              <mxPoint x="452" y="730" />
              <mxPoint x="680" y="730" />
            </Array>
          </mxGeometry>
        </mxCell>
        <mxCell id="3Fw8Cve3jLayRroJCqeQ-4" value="AWS" style="rounded=1;whiteSpace=wrap;html=1;" vertex="1" parent="1">
          <mxGeometry x="414" y="745" width="76" height="35" as="geometry" />
        </mxCell>
        <mxCell id="3Fw8Cve3jLayRroJCqeQ-22" style="edgeStyle=orthogonalEdgeStyle;rounded=0;orthogonalLoop=1;jettySize=auto;html=1;exitX=0.5;exitY=0;exitDx=0;exitDy=0;" edge="1" parent="1" source="3Fw8Cve3jLayRroJCqeQ-5" target="3Fw8Cve3jLayRroJCqeQ-10">
          <mxGeometry relative="1" as="geometry">
            <mxPoint x="680" y="700" as="targetPoint" />
          </mxGeometry>
        </mxCell>
        <mxCell id="3Fw8Cve3jLayRroJCqeQ-5" value="Ali" style="rounded=1;whiteSpace=wrap;html=1;" vertex="1" parent="1">
          <mxGeometry x="635" y="745" width="90" height="35" as="geometry" />
        </mxCell>
        <mxCell id="3Fw8Cve3jLayRroJCqeQ-10" value="OPS" style="rounded=1;whiteSpace=wrap;html=1;" vertex="1" parent="1">
          <mxGeometry x="620" y="665" width="120" height="30" as="geometry" />
        </mxCell>
        <mxCell id="3Fw8Cve3jLayRroJCqeQ-14" value="Cost Tree" style="rounded=1;whiteSpace=wrap;html=1;" vertex="1" parent="1">
          <mxGeometry x="400" y="270" width="80" height="40" as="geometry" />
        </mxCell>
        <mxCell id="3Fw8Cve3jLayRroJCqeQ-15" value="Cost Lens" style="rounded=1;whiteSpace=wrap;html=1;" vertex="1" parent="1">
          <mxGeometry x="570" y="270" width="80" height="40" as="geometry" />
        </mxCell>
        <mxCell id="3Fw8Cve3jLayRroJCqeQ-16" value="Cost Nerv" style="rounded=1;whiteSpace=wrap;html=1;" vertex="1" parent="1">
          <mxGeometry x="740" y="270" width="80" height="40" as="geometry" />
        </mxCell>
        <mxCell id="3Fw8Cve3jLayRroJCqeQ-17" value="案例分析" style="rounded=1;whiteSpace=wrap;html=1;" vertex="1" parent="1">
          <mxGeometry x="910" y="270" width="80" height="40" as="geometry" />
        </mxCell>
        <mxCell id="3Fw8Cve3jLayRroJCqeQ-26" style="edgeStyle=orthogonalEdgeStyle;rounded=0;orthogonalLoop=1;jettySize=auto;html=1;entryX=0.5;entryY=1;entryDx=0;entryDy=0;" edge="1" parent="1" source="3Fw8Cve3jLayRroJCqeQ-18" target="3Fw8Cve3jLayRroJCqeQ-10">
          <mxGeometry relative="1" as="geometry">
            <Array as="points">
              <mxPoint x="925" y="730" />
              <mxPoint x="680" y="730" />
            </Array>
          </mxGeometry>
        </mxCell>
        <mxCell id="3Fw8Cve3jLayRroJCqeQ-18" value="..." style="rounded=1;whiteSpace=wrap;html=1;" vertex="1" parent="1">
          <mxGeometry x="880" y="745" width="90" height="35" as="geometry" />
        </mxCell>
        <mxCell id="3Fw8Cve3jLayRroJCqeQ-29" value="" style="rounded=0;whiteSpace=wrap;html=1;" vertex="1" parent="1">
          <mxGeometry x="360" y="440" width="660" height="145" as="geometry" />
        </mxCell>
        <mxCell id="3Fw8Cve3jLayRroJCqeQ-33" value="外部数据" style="rounded=1;verticalAlign=middle;horizontal=1;whiteSpace=wrap;textDirection=ltr;align=center;labelBackgroundColor=default;fontSize=22;fontStyle=0" vertex="1" parent="1">
          <mxGeometry x="290" y="650" width="40" height="145" as="geometry" />
        </mxCell>
        <mxCell id="3Fw8Cve3jLayRroJCqeQ-34" value="成本模型" style="rounded=1;verticalAlign=middle;horizontal=1;whiteSpace=wrap;textDirection=ltr;align=center;labelBackgroundColor=default;fontSize=22;fontStyle=0" vertex="1" parent="1">
          <mxGeometry x="290" y="439.5" width="40" height="145" as="geometry" />
        </mxCell>
        <mxCell id="3Fw8Cve3jLayRroJCqeQ-35" value="应用" style="rounded=1;verticalAlign=middle;horizontal=1;whiteSpace=wrap;textDirection=ltr;align=center;labelBackgroundColor=default;fontSize=22;fontStyle=0" vertex="1" parent="1">
          <mxGeometry x="290" y="225" width="40" height="145" as="geometry" />
        </mxCell>
        <mxCell id="3Fw8Cve3jLayRroJCqeQ-36" value="" style="shape=singleArrow;direction=north;whiteSpace=wrap;html=1;" vertex="1" parent="1">
          <mxGeometry x="670" y="600" width="20" height="40" as="geometry" />
        </mxCell>
        <mxCell id="3Fw8Cve3jLayRroJCqeQ-37" value="" style="shape=singleArrow;direction=north;whiteSpace=wrap;html=1;" vertex="1" parent="1">
          <mxGeometry x="670" y="390" width="20" height="40" as="geometry" />
        </mxCell>
        <mxCell id="3Fw8Cve3jLayRroJCqeQ-39" value="" style="image;sketch=0;aspect=fixed;html=1;points=[];align=center;fontSize=12;image=img/lib/mscae/Cache_Redis_Product.svg;" vertex="1" parent="1">
          <mxGeometry x="580" y="491.5" width="50" height="42" as="geometry" />
        </mxCell>
        <mxCell id="3Fw8Cve3jLayRroJCqeQ-40" value="" style="sketch=0;outlineConnect=0;fontColor=#232F3E;gradientColor=none;fillColor=#C925D1;strokeColor=none;dashed=0;verticalLabelPosition=bottom;verticalAlign=top;align=center;html=1;fontSize=12;fontStyle=0;aspect=fixed;pointerEvents=1;shape=mxgraph.aws4.rds_mysql_instance_alt;" vertex="1" parent="1">
          <mxGeometry x="755.5" y="487.5" width="49" height="49" as="geometry" />
        </mxCell>
      </root>
    </mxGraphModel>
  </diagram>
</mxfile>
